<svg width="484" height="50" viewBox="0 0 484 50" fill="none" xmlns="http://www.w3.org/2000/svg">
<rect width="484" height="50" rx="6" fill="#FEE500"/>
<g clip-path="url(#clip0_596_7747)">
<path opacity="0.902" fill-rule="evenodd" clip-rule="evenodd" d="M190 16.976C185.029 16.976 181 20.106 181 23.965C181 26.365 182.558 28.482 184.932 29.74L183.933 33.407C183.845 33.731 184.213 33.989 184.496 33.801L188.873 30.897C189.243 30.933 189.618 30.954 190 30.954C194.97 30.954 198.1 27.825 198.1 23.965C198.1 20.106 194.97 16.976 190 16.976Z" fill="black"/>
</g>
<path d="M213.92 19.368H207.344V20.968H211.936C211.888 21.656 211.792 22.312 211.632 22.92L206.592 23.224L206.832 24.92L211.04 24.52C210.24 26.12 208.832 27.464 206.448 28.664L207.52 30.184C212.832 27.48 213.92 23.784 213.92 19.368ZM215.712 32.328H217.712V25.144H219.728V23.512H217.712V17.976H215.712V32.328ZM227.904 19.368H221.328V20.968H225.92C225.872 21.656 225.776 22.312 225.616 22.92L220.576 23.224L220.816 24.92L225.024 24.52C224.224 26.12 222.816 27.464 220.432 28.664L221.504 30.184C226.816 27.48 227.904 23.784 227.904 19.368ZM229.696 32.328H231.696V25.144H233.712V23.512H231.696V17.976H229.696V32.328ZM240.945 18.744C237.889 18.744 235.601 20.296 235.601 22.664C235.601 24.792 237.409 26.248 239.953 26.536V29.032H234.481V30.648H247.457V29.032H241.937V26.552C244.497 26.248 246.289 24.792 246.289 22.664C246.289 20.296 244.017 18.744 240.945 18.744ZM237.569 22.664C237.569 21.192 238.945 20.312 240.945 20.312C242.945 20.312 244.337 21.192 244.337 22.664C244.337 24.152 242.945 25.032 240.945 25.032C238.945 25.032 237.569 24.152 237.569 22.664ZM248.465 29.112V30.728H261.441V29.112H255.921V26.92H260.289V25.336H251.921V23.656H259.969V18.936H249.937V20.504H258.001V22.12H249.969V26.92H253.937V29.112H248.465ZM266.137 29.112V30.728H279.113V29.112H273.593V26.92H277.961V25.336H269.593V23.656H277.641V18.936H267.609V20.504H275.673V22.12H267.641V26.92H271.609V29.112H266.137ZM281.449 19.32V20.904H289.497V21C289.497 22.936 289.497 24.984 288.969 27.752L290.953 27.912C291.465 24.968 291.465 22.984 291.465 21V19.32H281.449ZM280.121 30.44H293.081V28.824H280.121V30.44ZM303.994 18.008V28.328H305.994V18.008H303.994ZM294.298 22.552C294.298 24.648 296.01 26.184 298.186 26.184C300.378 26.184 302.074 24.648 302.074 22.552C302.074 20.424 300.378 18.92 298.186 18.92C296.01 18.92 294.298 20.424 294.298 22.552ZM296.234 22.552C296.234 21.352 297.098 20.632 298.186 20.632C299.29 20.632 300.138 21.352 300.138 22.552C300.138 23.72 299.29 24.456 298.186 24.456C297.098 24.456 296.234 23.72 296.234 22.552ZM296.474 32.072H306.346V30.488H298.442V27.288H296.474V32.072Z" fill="#222222"/>
<defs>
<clipPath id="clip0_596_7747">
<rect width="18" height="18" fill="white" transform="translate(181 16)"/>
</clipPath>
</defs>
</svg>
