<svg width="104" height="64" viewBox="0 0 104 64" fill="none" xmlns="http://www.w3.org/2000/svg">
<path d="M18.9352 3.1264C10.3976 3.22524 3.48129 10.2063 3.48129 18.774C3.48129 27.3416 10.4964 34.4267 19.1171 34.4267H34.3891V18.774C34.3891 10.2063 27.4728 3.22524 18.9352 3.1264Z" fill="white"/>
<path d="M45.5408 0H19.1174C19.055 0 18.9978 0 18.9355 0C18.8731 0 18.816 0 18.7536 0C8.41288 0 0 8.42201 0 18.774V45.226C0 55.578 8.41288 64 18.7536 64C29.0943 64 37.5072 55.578 37.5072 45.226V37.5479H45.5408C55.8815 37.5479 64.2944 29.1259 64.2944 18.774C64.2944 8.42201 55.8815 0 45.5408 0ZM45.5408 34.4267H37.5072V18.774C37.5072 12.2455 34.1608 6.48687 29.0943 3.12119H45.5408C54.1615 3.12119 61.1766 10.1439 61.1766 18.774C61.1766 27.404 54.1615 34.4267 45.5408 34.4267ZM34.3894 45.226C34.3894 53.8561 27.3743 60.8788 18.7536 60.8788C10.1329 60.8788 3.11781 53.8561 3.11781 45.226V28.5589C6.41749 33.9481 12.3517 37.5479 19.1174 37.5479H34.3894V45.226ZM34.3894 34.4267H19.1174C10.4966 34.4267 3.48155 27.404 3.48155 18.774C3.48155 10.1439 10.3979 3.22523 18.9355 3.12639C27.4731 3.22523 34.3894 10.2063 34.3894 18.774V34.4267Z" fill="#5D31FD"/>
<path d="M23.7421 11.2623C24.8749 12.3807 25.4413 13.6396 25.4413 15.0389C25.4413 16.4382 24.8177 17.4474 23.5706 18.0717V18.2381C23.7317 18.3161 23.9655 18.4878 24.2773 18.7531C24.5891 19.0184 24.8385 19.2785 25.0308 19.5334C25.5556 20.2045 25.8206 20.9744 25.8206 21.8327C25.8206 23.5441 25.1815 24.9539 23.9032 26.0619C22.6249 27.1751 21.0192 27.7265 19.0914 27.7265C17.1635 27.7265 15.5786 27.1647 14.3003 26.0463C13.8223 25.6145 13.3962 25.0475 13.0324 24.3452C12.9025 24.0903 12.8194 23.8823 12.7674 23.721L12.7206 23.4817C12.544 22.9563 12.4556 22.5246 12.4556 22.1864C12.4556 21.2605 13.2403 20.7975 14.8044 20.7975C15.4435 20.7975 15.8644 20.8755 16.0723 21.0368C16.3425 21.2449 16.5815 21.661 16.7894 22.2853C16.9505 22.7951 17.387 23.18 18.1041 23.4349C18.4054 23.5285 18.7432 23.5806 19.1121 23.5806C19.9591 23.5806 20.5827 23.4089 20.9776 23.0656C21.3778 22.7222 21.5752 22.3321 21.5752 21.9003C21.5752 21.4685 21.3778 21.0888 20.988 20.7611C20.5983 20.4334 20.1358 20.2669 19.6006 20.2669C19.0654 20.2669 18.7016 20.2513 18.5094 20.2201C18.3171 20.1889 18.1093 20.1108 17.8858 19.9808C17.4545 19.7727 17.2415 19.1589 17.2415 18.1341C17.2415 17.0157 17.5377 16.355 18.13 16.1469C18.4002 16.0689 18.816 16.0273 19.3772 16.0273C20.5879 16.0273 21.1959 15.7152 21.1959 15.0909C21.1959 14.7528 21.0348 14.4355 20.7178 14.1338C20.3956 13.832 19.954 13.676 19.3876 13.676C18.8212 13.676 18.3691 13.7696 18.0365 13.9621C17.7039 14.1546 17.4961 14.347 17.4129 14.5395L17.2674 14.8256C16.8985 15.6267 16.3737 16.0221 15.6878 16.0221C15.2876 16.0221 14.8511 15.8764 14.3731 15.5903C13.5728 15.1273 13.1779 14.5915 13.1779 13.9829C13.1779 13.728 13.3598 13.1818 13.7287 12.3547C13.7911 12.209 13.9678 11.9593 14.2536 11.6004C14.5394 11.2414 14.8719 10.9241 15.2461 10.6536C15.6202 10.3831 16.1502 10.1334 16.8258 9.90974C17.5065 9.68605 18.2599 9.57681 19.0914 9.57681C21.0556 9.57681 22.6041 10.1386 23.7369 11.2571L23.7421 11.2623Z" fill="#5D31FD"/>
<path d="M59.0255 47.1145C59.514 48.1133 59.7582 49.2265 59.7582 50.4542C59.7582 51.6818 59.514 52.7899 59.0255 53.7782C58.5371 54.7666 57.9031 55.5573 57.134 56.1399C55.5699 57.3468 53.9487 57.9502 52.2703 57.9502H48.7367V61.1494C48.7367 61.5812 48.7212 61.9089 48.6952 62.1274C48.6692 62.3459 48.5757 62.5956 48.425 62.8765C48.16 63.3863 47.4273 63.6412 46.2217 63.6412C44.9018 63.6412 44.1276 63.2927 43.9041 62.5956C43.7898 62.2731 43.7327 61.7841 43.7327 61.1234V45.4186C43.7327 44.9869 43.7483 44.6592 43.7742 44.4407C43.8002 44.2222 43.8938 43.9725 44.0444 43.6916C44.3095 43.1818 45.0421 42.9269 46.2477 42.9269H52.2962C53.9539 42.9269 55.5647 43.5303 57.1288 44.7372C57.9031 45.3198 58.5319 46.1157 59.0203 47.1145H59.0255ZM53.9643 52.3217C54.5099 51.9055 54.7853 51.2865 54.7853 50.4542C54.7853 49.6218 54.5099 48.9976 53.9643 48.571C53.4187 48.1445 52.8522 47.9364 52.2703 47.9364H48.7367V52.9459H52.2962C52.8626 52.9459 53.4187 52.7378 53.9643 52.3217Z" fill="#5D31FD"/>
<path d="M61.5975 45.4186C61.5975 44.9869 61.6131 44.6592 61.6391 44.4407C61.6651 44.2222 61.7586 43.9725 61.9093 43.6916C62.1743 43.1818 62.907 42.9269 64.1125 42.9269C65.4324 42.9269 66.2119 43.2754 66.4613 43.9725C66.5548 44.295 66.6016 44.784 66.6016 45.4447V61.1755C66.6016 61.628 66.586 61.9558 66.56 62.1638C66.534 62.3719 66.4405 62.6164 66.2898 62.8973C66.0248 63.4071 65.2921 63.662 64.0866 63.662C62.7667 63.662 61.9924 63.3031 61.769 62.5852C61.6547 62.2835 61.5975 61.8049 61.5975 61.1442V45.4134V45.4186Z" fill="#5D31FD"/>
<path d="M81.806 58.2362L82.3153 57.8669C82.9544 57.4924 83.4065 57.2999 83.6715 57.2999C84.2535 57.2999 84.8875 57.8305 85.563 58.8865C85.9787 59.5471 86.1866 60.0725 86.1866 60.4731C86.1866 60.8736 86.0618 61.2014 85.8072 61.4615C85.5526 61.7268 85.2564 61.9609 84.9186 62.1689C84.5809 62.377 84.2535 62.5747 83.9417 62.762C83.6299 62.9492 82.996 63.1989 82.0347 63.4954C81.0733 63.792 80.1432 63.948 79.2494 63.948C78.3557 63.948 77.4515 63.8284 76.5369 63.5943C75.6224 63.3602 74.6818 62.9648 73.7101 62.4082C72.7384 61.8516 71.8706 61.1754 71.0964 60.3691C70.3221 59.5679 69.6882 58.538 69.1893 57.2843C68.6905 56.0306 68.441 54.6677 68.441 53.1955C68.441 51.7234 68.6853 50.3916 69.1737 49.19C69.6622 47.9935 70.2909 47 71.0548 46.2197C71.8187 45.4394 72.6916 44.7839 73.6686 44.2533C75.5133 43.2337 77.3736 42.7239 79.239 42.7239C80.1224 42.7239 81.0266 42.8592 81.9359 43.1349C82.8505 43.4106 83.5416 43.6863 84.0145 43.9672L84.6952 44.3625C85.033 44.5706 85.298 44.7423 85.485 44.8723C85.9735 45.2677 86.2177 45.7151 86.2177 46.2145C86.2177 46.7138 86.0203 47.2392 85.6253 47.7855C84.8927 48.805 84.2327 49.3148 83.6455 49.3148C83.3078 49.3148 82.8245 49.1068 82.2061 48.6906C81.4163 48.0508 80.3614 47.7282 79.0416 47.7282C77.8152 47.7282 76.6097 48.1548 75.4249 49.0027C74.8585 49.4189 74.3908 50.0015 74.0115 50.7558C73.6322 51.5101 73.4451 52.3632 73.4451 53.3152C73.4451 54.2671 73.6322 55.1203 74.0115 55.8745C74.3856 56.6288 74.8689 57.2219 75.4509 57.6588C76.5993 58.4911 77.7997 58.9021 79.0416 58.9021C79.6236 58.9021 80.1744 58.8293 80.694 58.6732C81.2136 58.5223 81.5826 58.3715 81.8112 58.2206L81.806 58.2362Z" fill="#5D31FD"/>
<path d="M96.933 53.258C99.8169 56.0306 101.859 58.1166 103.065 59.5108C103.688 60.2078 104 60.8008 104 61.2794C104 61.758 103.621 62.325 102.867 62.9753C102.114 63.6255 101.495 63.9532 101.017 63.9532C100.539 63.9532 99.9573 63.5579 99.2765 62.762L93.0565 55.6613V61.1806C93.0565 61.6332 93.0409 61.9609 93.0149 62.169C92.989 62.377 92.8954 62.6215 92.7447 62.9024C92.4797 63.4122 91.747 63.6671 90.5415 63.6671C89.2216 63.6671 88.4474 63.3082 88.2239 62.5903C88.1096 62.2886 88.0524 61.81 88.0524 61.1494V45.4186C88.0524 44.9868 88.068 44.6591 88.094 44.4406C88.12 44.2221 88.2135 43.9724 88.3642 43.6915C88.6292 43.1817 89.3619 42.9268 90.5675 42.9268C91.8873 42.9268 92.6668 43.2754 92.9162 43.9724C93.0097 44.2949 93.0565 44.7839 93.0565 45.4446V50.8494C95.6183 47.9623 97.6916 45.5954 99.2765 43.7487C99.9365 42.9736 100.508 42.5887 101.002 42.5887C101.495 42.5887 102.114 42.9164 102.867 43.5667C103.621 44.2169 104 44.7839 104 45.2625C104 45.7411 103.719 46.3133 103.153 46.974C102.062 48.2381 100.363 49.9755 98.0658 52.1812L96.933 53.258Z" fill="#5D31FD"/>
<path d="M3.118 28.5589V45.2261C3.118 53.8562 10.1331 60.8788 18.7538 60.8788C27.3745 60.8788 34.3896 53.8562 34.3896 45.2261V37.548H19.1175C12.3571 37.548 6.41767 33.9482 3.118 28.5589Z" fill="#FF5416"/>
<path d="M37.507 18.7739V34.4267H45.5405C54.1613 34.4267 61.1764 27.404 61.1764 18.7739C61.1764 10.1438 54.1613 3.12117 45.5405 3.12117H29.0941C34.1606 6.48685 37.507 12.2454 37.507 18.7739Z" fill="#DDEF48"/>
</svg>
