<svg width="255" height="39" viewBox="0 0 255 39" fill="none" xmlns="http://www.w3.org/2000/svg">
<g clip-path="url(#clip0_596_7736)">
<path d="M3.58892 1.93792H30.941C31.9914 1.93792 32.7607 2.06339 33.2537 2.3097C33.7466 2.556 34.0737 2.94638 34.235 3.47617C34.4008 4.00596 34.4838 4.6984 34.4838 5.55815C34.4838 6.4179 34.4008 7.10569 34.235 7.6169C34.0691 8.1281 33.7927 8.48594 33.4011 8.68112C32.8114 8.97855 31.9729 9.12726 30.8903 9.12726H21.4965V34.0878C21.4965 34.85 21.4735 35.4123 21.4228 35.7748C21.3721 36.1373 21.2247 36.5602 20.9805 37.0388C20.7363 37.5175 20.2987 37.8568 19.6767 38.0566C19.0548 38.2564 18.2347 38.354 17.2166 38.354C16.1984 38.354 15.3876 38.2564 14.7794 38.0566C14.1713 37.8568 13.7475 37.5175 13.4987 37.0388C13.2545 36.5602 13.1071 36.128 13.0564 35.7469C13.0057 35.3658 12.9827 34.7942 12.9827 34.0367V9.13191H3.54285C2.49244 9.13191 1.72307 9.00643 1.23011 8.76013C0.737159 8.51382 0.410059 8.12345 0.248812 7.59366C0.0829585 7.06387 0.00463867 6.37142 0.00463867 5.51168C0.00463867 4.65193 0.0875655 3.96413 0.248812 3.45293C0.414666 2.94173 0.691088 2.58389 1.08269 2.3887C1.67239 2.09128 2.51087 1.94256 3.59353 1.94256L3.58892 1.93792Z" fill="#5D31FD"/>
<path d="M50.8157 12.306C54.0959 12.306 56.8233 13.5654 59.0071 16.075C61.1862 18.5891 62.2781 21.6656 62.2781 25.3045V34.0367C62.2781 34.7989 62.255 35.3705 62.2043 35.7469C62.1537 36.128 61.997 36.5648 61.739 37.0621C61.3106 37.9218 60.0483 38.354 57.952 38.354C55.8558 38.354 54.7041 37.9265 54.2157 37.0621C53.9531 36.5648 53.7965 36.1187 53.7504 35.7237C53.6997 35.3286 53.6767 34.7291 53.6767 33.9391V25.2533C53.6767 23.8963 53.2989 22.8414 52.5434 22.0792C51.7878 21.3171 50.8296 20.936 49.664 20.936C48.4984 20.936 47.4756 21.2939 46.5911 22.0049C45.7065 22.7159 45.1951 23.5199 45.0661 24.4122V34.0367C45.0661 34.7989 45.0431 35.3705 44.9924 35.7469C44.9417 36.128 44.7851 36.5648 44.5271 37.0621C44.0987 37.9218 42.8363 38.354 40.7401 38.354C38.6439 38.354 37.4092 37.9079 36.9531 37.0156C36.7228 36.5184 36.5846 36.0908 36.5339 35.7237C36.4832 35.3612 36.4602 34.7803 36.4602 33.9856V4.31733C36.4602 3.55517 36.4832 2.98355 36.5339 2.60712C36.5846 2.22605 36.7228 1.80314 36.9531 1.34306C37.4138 0.450786 38.69 0.0046463 40.7908 0.0046463C42.8916 0.0046463 44.1033 0.450786 44.5271 1.34306C44.7897 1.84032 44.9464 2.27717 44.9924 2.65824C45.0431 3.03932 45.0661 3.61094 45.0661 4.36844V15.336C46.7062 13.3191 48.6228 12.3107 50.8203 12.3107L50.8157 12.306Z" fill="#5D31FD"/>
<path d="M83.0835 12.5058C83.7054 12.7057 84.2214 13.0449 84.6314 13.5236C85.0415 14.0023 85.2442 14.7737 85.2442 15.8333C85.2442 16.8929 84.9309 18.05 84.3089 19.3048C83.687 20.5642 82.784 21.1916 81.6046 21.1916C81.0149 21.1916 80.4482 21.0615 79.9092 20.7966C79.3702 20.5317 78.6561 20.4016 77.7715 20.4016C76.887 20.4016 76.0577 20.7176 75.2884 21.345C74.519 21.9724 74.132 22.7345 74.132 23.6268V34.046C74.132 34.8082 74.1089 35.3798 74.0583 35.7562C74.0076 36.1373 73.851 36.5741 73.593 37.0714C73.1 37.9311 71.8239 38.3633 69.7553 38.3633C68.1797 38.3633 67.051 38.0845 66.3599 37.5175C65.8347 37.0528 65.5398 36.3418 65.4753 35.3844V16.5304C65.4753 15.7682 65.4984 15.2013 65.5491 14.8202C65.5997 14.4391 65.7379 14.0209 65.9683 13.5561C66.429 12.6638 67.7052 12.2177 69.806 12.2177C71.7732 12.2177 73.0033 12.5988 73.4962 13.3609C73.8556 13.8907 74.0398 14.4345 74.0398 14.9968C74.2011 14.7644 74.4407 14.4856 74.7539 14.151C75.0672 13.821 75.7306 13.3749 76.7488 12.8126C77.7669 12.2502 78.6607 11.9668 79.4301 11.9668C80.1995 11.9668 80.8491 12.0086 81.3743 12.0922C81.8995 12.1759 82.4707 12.3153 83.0973 12.5151L83.0835 12.5058Z" fill="#5D31FD"/>
<path d="M110.726 22.1536C110.726 24.1891 110.224 25.6948 109.224 26.6708C108.224 27.6467 107.118 28.1347 105.902 28.1347H94.2417C94.2417 29.0595 94.7808 29.8402 95.8634 30.4676C96.9461 31.095 98.0287 31.411 99.1114 31.411C101.014 31.411 102.507 31.2112 103.589 30.8161L104.128 30.6163C104.916 30.2538 105.57 30.0726 106.096 30.0726C107.146 30.0726 108.044 30.8161 108.8 32.3033C109.224 33.1955 109.44 33.9577 109.44 34.5851C109.44 37.5315 105.948 39 98.964 39C96.536 39 94.3799 38.5771 92.4957 37.7359C90.6114 36.8948 89.1417 35.7748 88.0913 34.3852C86.0274 31.7038 84.9908 28.7109 84.9908 25.4021C84.9908 21.2334 86.3268 17.9013 88.9989 15.4057C91.671 12.9102 95.0065 11.66 99.01 11.66C103.566 11.66 106.911 13.2819 109.044 16.5211C110.159 18.2406 110.717 20.1181 110.717 22.1536H110.726ZM100.346 23.6175C101.595 23.6175 102.217 23.0877 102.217 22.0281C102.217 21.266 101.931 20.6572 101.355 20.1924C100.779 19.7277 99.9591 19.4954 98.8949 19.4954C97.8306 19.4954 96.771 19.9322 95.7206 20.8105C94.6702 21.6889 94.145 22.623 94.145 23.6128H100.341L100.346 23.6175Z" fill="#5D31FD"/>
<path d="M138.175 22.1536C138.175 24.1891 137.672 25.6948 136.673 26.6708C135.673 27.6467 134.567 28.1347 133.351 28.1347H121.695C121.695 29.0595 122.234 29.8402 123.317 30.4676C124.399 31.095 125.482 31.411 126.565 31.411C128.467 31.411 129.96 31.2112 131.043 30.8161L131.582 30.6163C132.37 30.2538 133.024 30.0726 133.549 30.0726C134.599 30.0726 135.498 30.8161 136.253 32.3033C136.677 33.1955 136.894 33.9577 136.894 34.5851C136.894 37.5315 133.402 39 126.417 39C123.989 39 121.833 38.5771 119.949 37.7359C118.065 36.8948 116.595 35.7748 115.545 34.3852C113.481 31.7038 112.444 28.7109 112.444 25.4021C112.444 21.2334 113.78 17.9013 116.452 15.4057C119.124 12.9102 122.46 11.66 126.463 11.66C131.02 11.66 134.365 13.2819 136.498 16.5211C137.612 18.2406 138.17 20.1181 138.17 22.1536H138.175ZM127.795 23.6175C129.039 23.6175 129.665 23.0877 129.665 22.0281C129.665 21.266 129.38 20.6572 128.804 20.1924C128.228 19.7277 127.408 19.4954 126.344 19.4954C125.279 19.4954 124.22 19.9322 123.169 20.8105C122.119 21.6889 121.594 22.623 121.594 23.6128H127.79L127.795 23.6175Z" fill="#5D31FD"/>
<path d="M178.956 9.3271C179.808 11.0791 180.237 13.031 180.237 15.1827C180.237 17.3344 179.808 19.2769 178.956 21.015C178.104 22.7531 177.003 24.1333 175.662 25.1604C172.939 27.2796 170.12 28.3345 167.199 28.3345H161.049V33.9438C161.049 34.7059 161.025 35.2775 160.975 35.654C160.924 36.035 160.767 36.4719 160.505 36.9691C160.044 37.8614 158.768 38.3076 156.667 38.3076C154.373 38.3076 153.028 37.6941 152.636 36.4719C152.438 35.9096 152.341 35.0498 152.341 33.8926V6.35284C152.341 5.59068 152.364 5.02371 152.415 4.64264C152.466 4.26156 152.618 3.82471 152.88 3.32745C153.341 2.43518 154.617 1.98904 156.718 1.98904H167.245C170.129 1.98904 172.935 3.04862 175.657 5.16313C177.003 6.19018 178.099 7.57972 178.951 9.33174L178.956 9.3271ZM170.152 18.459C171.101 17.734 171.58 16.6419 171.58 15.1827C171.58 13.7234 171.106 12.6267 170.152 11.8831C169.198 11.1395 168.217 10.7678 167.199 10.7678H161.049V19.5511H167.245C168.226 19.5511 169.194 19.1886 170.147 18.459H170.152Z" fill="#5D31FD"/>
<path d="M182.692 6.35283C182.692 5.59068 182.715 5.02371 182.766 4.64263C182.817 4.26156 182.969 3.82471 183.231 3.32745C183.692 2.43518 184.968 1.98904 187.069 1.98904C189.363 1.98904 190.727 2.60248 191.151 3.82471C191.317 4.38703 191.395 5.24678 191.395 6.40396V33.9949C191.395 34.7896 191.372 35.3705 191.321 35.733C191.271 36.0954 191.114 36.5276 190.856 37.0249C190.395 37.9172 189.119 38.3633 187.018 38.3633C184.724 38.3633 183.379 37.7359 182.983 36.4765C182.785 35.9467 182.688 35.1056 182.688 33.9438V6.35283H182.692Z" fill="#5D31FD"/>
<path d="M217.125 28.8317L218.01 28.1858C219.125 27.5259 219.913 27.1913 220.369 27.1913C221.387 27.1913 222.483 28.1161 223.663 29.9703C224.382 31.1275 224.745 32.0523 224.745 32.7494C224.745 33.4465 224.524 34.0228 224.082 34.4875C223.64 34.9522 223.124 35.3658 222.534 35.7283C221.944 36.0908 221.378 36.4394 220.839 36.7693C220.3 37.0993 219.189 37.5315 217.517 38.0613C215.845 38.591 214.228 38.8559 212.67 38.8559C211.113 38.8559 209.538 38.6468 207.948 38.2378C206.359 37.8242 204.719 37.1318 203.028 36.1559C201.337 35.1799 199.821 33.9902 198.476 32.5821C197.131 31.1786 196.025 29.3755 195.154 27.1727C194.284 24.9745 193.851 22.5812 193.851 20.0019C193.851 17.4227 194.274 15.0804 195.131 12.9799C195.984 10.8793 197.076 9.14121 198.402 7.77026C199.729 6.39931 201.245 5.24678 202.954 4.32197C206.17 2.53742 209.399 1.64049 212.647 1.64049C214.186 1.64049 215.753 1.88215 217.347 2.36082C218.936 2.83949 220.143 3.32746 220.963 3.82471L222.143 4.52181C222.732 4.8843 223.193 5.18172 223.52 5.41409C224.372 6.11118 224.801 6.89657 224.801 7.77026C224.801 8.64395 224.455 9.56411 223.769 10.5261C222.488 12.3107 221.341 13.2076 220.327 13.2076C219.738 13.2076 218.899 12.8451 217.817 12.1155C216.439 10.9908 214.601 10.4285 212.306 10.4285C210.173 10.4285 208.077 11.1721 206.009 12.6592C205.027 13.3888 204.203 14.4112 203.548 15.7357C202.894 17.0602 202.563 18.5566 202.563 20.225C202.563 21.8934 202.89 23.3944 203.548 24.7143C204.203 26.0387 205.041 27.0797 206.059 27.8419C208.059 29.2965 210.141 30.0261 212.306 30.0261C213.325 30.0261 214.283 29.896 215.186 29.6311C216.089 29.3662 216.734 29.1013 217.13 28.8364L217.125 28.8317Z" fill="#5D31FD"/>
<path d="M242.704 20.0949C247.721 24.9559 251.277 28.6133 253.378 31.0624C254.461 32.2847 255 33.321 255 34.1622C255 35.0033 254.346 35.9979 253.033 37.1411C251.72 38.2843 250.646 38.8513 249.812 38.8513C248.979 38.8513 247.97 38.1588 246.786 36.7693L235.964 24.3146V33.9902C235.964 34.7849 235.941 35.3658 235.89 35.7283C235.839 36.0908 235.683 36.523 235.425 37.0203C234.964 37.9125 233.688 38.3587 231.587 38.3587C229.293 38.3587 227.947 37.7313 227.551 36.4719C227.353 35.9421 227.256 35.1009 227.256 33.9391V6.35284C227.256 5.59068 227.279 5.02371 227.33 4.64264C227.381 4.26156 227.533 3.82471 227.795 3.32745C228.256 2.43518 229.532 1.98904 231.633 1.98904C233.927 1.98904 235.291 2.60248 235.715 3.82471C235.881 4.38704 235.959 5.24678 235.959 6.40396V15.8798C240.419 10.8189 244.026 6.66885 246.781 3.42505C247.928 2.06804 248.928 1.38954 249.78 1.38954C250.632 1.38954 251.715 1.96115 253.028 3.09974C254.341 4.24297 254.995 5.23284 254.995 6.07865C254.995 6.92445 254.502 7.92362 253.521 9.08079C251.618 11.2975 248.665 14.3415 244.666 18.2127L242.699 20.0995L242.704 20.0949Z" fill="#5D31FD"/>
</g>
<defs>
<clipPath id="clip0_596_7736">
<rect width="255" height="39" fill="white"/>
</clipPath>
</defs>
</svg>
