<svg width="86" height="86" viewBox="0 0 86 86" fill="none" xmlns="http://www.w3.org/2000/svg">
<g clip-path="url(#clip0_1510_12177)">
<path d="M75.0101 43.2651L78.3101 40.0151C86.4601 32.0051 86.5801 18.8651 78.5701 10.7051C70.5601 2.55509 57.4201 2.43509 49.2601 10.4451L43.2101 16.3851L36.9901 10.0551C28.9901 1.91509 15.8401 1.79509 7.69011 9.80509C-0.459894 17.8151 -0.579895 30.9551 7.43011 39.1151L10.9901 42.7351L7.69011 45.9851C-0.459894 53.9951 -0.579895 67.1351 7.43011 75.2951C15.4401 83.4551 28.5801 83.5651 36.7401 75.5551L42.7901 69.6151L49.0101 75.9451C57.0201 84.0951 70.1601 84.2151 78.3201 76.2051C86.4701 68.1951 86.5901 55.0551 78.5801 46.8951L75.0201 43.2751L75.0101 43.2651Z" fill="#5D31FE"/>
<path d="M55.5 28.3351C48.81 21.6851 37.96 21.6251 31.21 28.2551C24.41 34.9351 24.32 45.8951 30.99 52.6851L42.82 64.7251L55.14 52.6151C61.89 45.9851 62.03 35.1351 55.49 28.3251L55.5 28.3351Z" fill="white"/>
</g>
<defs>
<clipPath id="clip0_1510_12177">
<rect width="83" height="78.25" fill="white" transform="translate(1.5 3.875)"/>
</clipPath>
</defs>
</svg>
