<svg width="174" height="176" viewBox="0 0 174 176" fill="none" xmlns="http://www.w3.org/2000/svg">
<g clip-path="url(#clip0_828_6934)">
<path d="M134.59 14.6077C130.354 11.8032 125.875 9.34017 121.177 7.29167C110.685 2.70694 99.1226 0.121934 87 0C38.948 0.46335 0 39.7506 0 87.9878C0 98.8644 1.99608 109.278 5.59877 118.886C7.57051 124.129 10.0048 129.128 12.9015 133.86C28.359 159.124 56.1581 176 87.852 176H174V87.9878C174 57.3823 158.323 30.386 134.59 14.6077Z" fill="#FF5416"/>
<path d="M159.395 161.368H87.852C47.4678 161.368 14.6055 128.446 14.6055 87.9878C14.6055 47.53 47.0053 15.0954 87 14.6321C126.995 15.0954 159.395 47.8226 159.395 87.9878V161.368Z" fill="white"/>
<path d="M113.679 110.594C116.844 110.594 119.108 110.96 120.447 111.692C121.785 112.423 122.71 113.545 123.173 115.057C123.635 116.569 123.879 118.545 123.879 120.983C123.879 123.422 123.635 125.373 123.124 126.836C122.613 128.299 121.785 129.324 120.641 129.86C118.937 130.787 116.552 131.25 113.46 131.25L68.1832 131.299C65.4082 131.299 63.0226 130.275 61.0022 128.177C58.9818 126.08 57.9837 123.666 57.9837 120.861C57.9837 116.691 59.42 112.838 62.3167 109.302C65.2135 105.79 68.6944 102.766 72.784 100.23C76.8735 97.7182 80.963 95.2307 85.0526 92.792C89.1421 90.3533 92.6474 87.5732 95.5198 84.4761C98.4166 81.379 99.8528 78.0868 99.8528 74.5994C99.8528 73.8922 99.585 72.9167 99.0495 71.6486C98.514 70.3805 97.9054 69.3319 97.2482 68.5271C96.5909 67.7223 95.5685 66.9663 94.181 66.2591C92.7935 65.5763 90.8461 65.2105 88.3875 65.2105C85.9046 65.2105 83.7868 66.1372 81.9611 67.9418C80.1354 69.7708 79.1374 71.5511 78.8939 73.3313L78.4314 75.9895V76.6967C78.4314 78.4038 78.3827 79.6719 78.261 80.5254C78.1393 81.379 77.7742 82.3545 77.1656 83.4275C75.9972 85.2809 73.0031 86.2076 68.1346 86.232C62.7305 86.232 59.5173 84.7688 58.5193 81.8423C58.1298 80.5986 57.9351 78.6233 57.9351 75.9163C57.9351 67.8687 60.7831 60.6501 66.5523 54.2608C72.2971 47.8714 79.8189 44.6767 89.1178 44.6524C98.4166 44.628 105.963 47.8714 111.781 54.3096C117.574 60.7721 120.471 68.1369 120.495 76.4041C120.495 80.8181 119.546 84.9882 117.623 88.9389C115.7 92.8896 113.387 96.0599 110.685 98.4498C104.965 103.571 99.8771 107.01 95.3981 108.79L92.5014 109.96V110.546H113.704L113.679 110.594Z" fill="#FF5416"/>
</g>
<defs>
<clipPath id="clip0_828_6934">
<rect width="174" height="176" fill="white"/>
</clipPath>
</defs>
</svg>
