<svg width="174" height="176" viewBox="0 0 174 176" fill="none" xmlns="http://www.w3.org/2000/svg">
<g clip-path="url(#clip0_828_6930)">
<path d="M134.59 14.6077C130.354 11.8032 125.875 9.34017 121.177 7.29167C110.685 2.70694 99.1226 0.121934 87 0C38.948 0.46335 0 39.7506 0 87.9878C0 98.8644 1.99608 109.278 5.59877 118.886C7.57051 124.129 10.0048 129.128 12.9015 133.86C28.359 159.124 56.1581 176 87.852 176H174V87.9878C174 57.3823 158.323 30.386 134.59 14.6077Z" fill="#DEF048"/>
<path d="M159.395 161.368H87.852C47.4678 161.368 14.6055 128.446 14.6055 87.9878C14.6055 47.53 47.0053 15.0954 87 14.6321C126.995 15.0954 159.395 47.8226 159.395 87.9878V161.368Z" fill="white"/>
<path d="M111.756 53.3341C117.063 58.5773 119.716 64.4789 119.716 71.0389C119.716 77.599 116.795 82.3301 110.953 85.2565V86.0369C111.707 86.4027 112.803 87.2074 114.263 88.4512C115.724 89.6949 116.892 90.9142 117.793 92.1092C120.252 95.2551 121.493 98.8644 121.493 102.888C121.493 110.911 118.499 117.52 112.511 122.715C106.522 127.934 99.0007 130.519 89.9696 130.519C80.9386 130.519 73.5141 127.885 67.5259 122.642C65.2863 120.617 63.2903 117.959 61.5863 114.667C60.9777 113.472 60.5883 112.497 60.3448 111.741L60.1257 110.619C59.2981 108.156 58.8843 106.132 58.8843 104.546C58.8843 100.206 62.56 98.0352 69.8871 98.0352C72.8812 98.0352 74.8529 98.401 75.8266 99.157C77.0924 100.132 78.2122 102.083 79.1859 105.01C79.9405 107.4 81.9853 109.204 85.3445 110.399C86.7564 110.838 88.3387 111.082 90.067 111.082C94.0348 111.082 96.9559 110.277 98.8059 108.668C100.68 107.058 101.605 105.229 101.605 103.205C101.605 101.181 100.68 99.4009 98.8546 97.8645C97.0289 96.3281 94.8624 95.5477 92.3552 95.5477C89.8479 95.5477 88.1439 95.4746 87.2433 95.3283C86.3426 95.1819 85.3689 94.8161 84.3222 94.2065C82.3017 93.231 81.3037 90.3533 81.3037 85.5491C81.3037 80.306 82.6912 77.2088 85.4663 76.2334C86.7321 75.8675 88.6795 75.6725 91.3084 75.6725C96.9802 75.6725 99.8283 74.2092 99.8283 71.2828C99.8283 69.6977 99.0737 68.2101 97.5888 66.7956C96.0796 65.3812 94.0105 64.6496 91.3571 64.6496C88.7038 64.6496 86.586 65.0886 85.0281 65.9909C83.4702 66.8932 82.4965 67.7955 82.107 68.6978L81.4254 70.0391C79.6971 73.7947 77.2385 75.6481 74.0253 75.6481C72.1509 75.6481 70.1062 74.9652 67.8666 73.624C64.1179 71.4535 62.2679 68.9417 62.2679 66.0884C62.2679 64.8935 63.1199 62.3328 64.8482 58.4553C65.1403 57.7725 65.9679 56.6019 67.3068 54.9192C68.6456 53.2365 70.2035 51.7489 71.9562 50.4808C73.7088 49.2127 76.1918 48.0421 79.3563 46.9935C82.5452 45.9449 86.0748 45.4327 89.9696 45.4327C99.1711 45.4327 106.425 48.0665 111.732 53.3097L111.756 53.3341Z" fill="#DEF048"/>
</g>
<defs>
<clipPath id="clip0_828_6930">
<rect width="174" height="176" fill="white"/>
</clipPath>
</defs>
</svg>
