<svg width="174" height="176" viewBox="0 0 174 176" fill="none" xmlns="http://www.w3.org/2000/svg">
<g clip-path="url(#clip0_828_6939)">
<path d="M134.59 14.6077C130.354 11.8032 125.875 9.34017 121.177 7.29167C110.685 2.70694 99.1226 0.121934 87 0C38.948 0.46335 0 39.7506 0 87.9878C0 98.8644 1.99608 109.278 5.59877 118.886C7.57051 124.129 10.0048 129.128 12.9015 133.86C28.359 159.124 56.1581 176 87.852 176H174V87.9878C174 57.3823 158.323 30.386 134.59 14.6077Z" fill="#5D31FE"/>
<path d="M159.395 161.368H87.852C47.4678 161.368 14.6055 128.446 14.6055 87.9878C14.6055 47.53 47.0053 15.0954 87 14.6321C126.995 15.0954 159.395 47.8226 159.395 87.9878V161.368Z" fill="white"/>
<path d="M87.2678 44.9938C89.4343 42.8234 91.7955 41.726 94.3515 41.726C96.9074 41.726 98.8792 41.921 100.315 42.3356C101.727 42.7502 102.823 43.2379 103.577 43.7744C104.332 44.311 104.916 45.2133 105.33 46.4814C105.744 47.8958 105.963 50.1394 105.963 53.139L106.036 123.202C106.036 125.129 105.963 126.568 105.841 127.543C105.719 128.519 105.33 129.616 104.648 130.884C103.48 133.152 100.218 134.298 94.8627 134.298C89.6777 134.298 86.4402 133.225 85.1987 131.031C84.5171 129.763 84.1276 128.616 84.0059 127.568C83.8842 126.519 83.8112 124.983 83.8112 122.983L83.7625 78.0624L82.1316 79.5744C78.6993 82.1838 75.7782 83.4763 73.3439 83.4763C70.9097 83.4763 68.3781 82.0131 65.7491 79.0866C63.1201 76.1602 61.7812 73.5508 61.7812 71.2828C61.7812 69.0149 63.2905 66.5518 66.2846 63.8692L86.854 45.2377L87.2191 44.9938H87.2678Z" fill="#5D31FE"/>
</g>
<defs>
<clipPath id="clip0_828_6939">
<rect width="174" height="176" fill="white"/>
</clipPath>
</defs>
</svg>
