<svg width="24" height="24" viewBox="0 0 24 24" fill="none" xmlns="http://www.w3.org/2000/svg">
<path d="M8.40019 4.7998V5.6758C7.58419 5.2918 6.72019 5.0758 5.84419 5.0758C4.30819 5.0758 2.77219 5.6638 1.59619 6.8278L4.14019 9.3718H5.83219L5.71219 10.9558C6.45619 11.6998 7.41619 12.0598 8.38819 12.0598H8.40019V14.3998H6.00019V17.3998C6.00019 18.3958 6.80419 19.1998 7.80019 19.1998H16.8002C18.1202 19.1998 19.2002 18.1198 19.2002 16.7998V4.7998H8.40019ZM8.38819 10.8598C7.87219 10.8598 7.38019 10.7158 6.96019 10.4278L7.14019 8.1838H4.64419L3.40819 6.9478C4.14019 6.5158 4.98019 6.2878 5.84419 6.2878C7.12819 6.2878 8.32819 6.7918 9.24019 7.6918L10.9322 9.38381L10.2122 10.1038C9.72019 10.5838 9.07219 10.8598 8.38819 10.8598ZM18.0002 16.7998C18.0002 17.4598 17.4602 17.9998 16.8002 17.9998C16.1402 17.9998 15.6002 17.4598 15.6002 16.7998V14.3998H9.60019V11.8438C10.1282 11.6638 10.6322 11.3758 11.0642 10.9558L11.7842 10.2358L14.7482 13.1998H15.6002V12.3478L10.0802 6.8398C9.93619 6.6838 9.76819 6.5758 9.60019 6.4438V5.9998H18.0002V16.7998Z" fill="black"/>
</svg>
