<svg width="24" height="24" viewBox="0 0 24 24" fill="none" xmlns="http://www.w3.org/2000/svg">
<path d="M12 4C16.852 4 20 7.148 20 12C20 16.852 16.852 20 12 20C7.148 20 4 16.852 4 12C4 7.148 7.148 4 12 4ZM12 2C6.477 2 2 6.477 2 12C2 17.523 6.477 22 12 22C17.523 22 22 17.523 22 12C22 6.477 17.523 2 12 2Z" fill="#222222"/>
<path d="M6.26611 9.56201L9.14611 16L12.0261 9L14.9061 16L17.7861 9.56201" stroke="#222222" stroke-width="1.5" stroke-linejoin="round"/>
<path d="M5.75 12.3999H18.25" stroke="#222222" stroke-width="1.5" stroke-linejoin="round"/>
</svg>
